<?xml version="1.0" encoding="UTF-8"?>
<svg id="Layer_2" data-name="Layer 2" xmlns="http://www.w3.org/2000/svg" viewBox="0 0 469.05 100.83">
  <defs>
    <style>
      .cls-1 {
        fill: #252223;
      }

      .cls-2 {
        fill: #282425;
      }

      .cls-3 {
        fill: #262324;
      }
    </style>
  </defs>
  <g id="Layer_1-2" data-name="Layer 1">
    <g>
      <path class="cls-3" d="M78.91,35.06c-15.4,8.87-13.01,32.41,3.24,38.81-2.99,8.41-11.73,26.01-21.61,26.88-5.84.51-11.28-4.25-18.7-3.89-10.12.48-14.77,9.13-25.01-.7C8.13,87.79.67,69.44.06,57.45-.87,39.45,9.9,22.06,29.93,25.21c3.88.61,7.87,3.81,11.92,3.78,3.82-.03,9.95-3.72,14.41-4.41,7.58-1.18,20.31,2.19,22.66,10.49Z"/>
      <path class="cls-1" d="M112.97,25.75l12.15,51.56,13.62-50.81c1.32-1.77,12.69-.24,15.56-.82l13.41,52.4,12.08-52.36h16.41s-19.87,72.68-19.87,72.68c-1.3,1.76-12.1.24-14.9.82l-14.85-49.27-13.24,48.48c-1.25,1.69-13.12.39-15.97.69l-20.44-73.35h16.02Z"/>
      <polygon class="cls-3" points="423.67 25.56 423.68 55.25 453.39 55.23 453.37 25.54 469 25.53 469.05 98.97 453.41 98.98 453.39 67.73 423.69 67.75 423.71 99 408.08 99.01 408.03 25.57 423.67 25.56"/>
      <path class="cls-3" d="M391.64,50.58h-14.85c-.17,0,.18-2.57-.05-3.44-3.06-11.57-19.72-13.56-26.09-4.3-5.14,7.48-5.13,31.5.02,38.96,5.38,7.81,21.6,8.01,25.28-1.21,1-2.51.34-4.89,2.02-6.57h13.68c2.13,28.29-39.19,35.19-53.92,15.26-8.29-11.21-8.16-37.66-2.28-49.9,11.72-24.42,57.56-18.67,56.19,11.2Z"/>
      <path class="cls-3" d="M322.05,25.62v12.5s-21.49.01-21.49.01c-.08,0-1.17,1.09-1.17,1.17l.04,59.77h-14.85s-.04-60.93-.04-60.93h-21.89s0-12.49,0-12.49l59.4-.04Z"/>
      <path class="cls-2" d="M60.97,0c1.21,8.59-4.85,18.73-12.72,22.04-8.82,3.7-8.67-.34-6.05-7.6C45.06,6.51,52.61.83,60.97,0Z"/>
      <path class="cls-3" d="M239.61,26.43c-1.15-1.55-15.53-.68-18.42-.39l-23.37,73.1h14.85s5.41-18.42,5.41-18.42h22.75s5.45,18.39,5.45,18.39h16.41s-23.08-72.68-23.08-72.68ZM221.25,69.44l7.81-28.91c1.22.12,1.18,1.19,1.5,2,3.14,7.9,4.73,18.57,7.1,26.9h-16.41Z"/>
    </g>
  </g>
</svg>