<?xml version="1.0" encoding="UTF-8"?>
<svg id="Layer_2" data-name="Layer 2" xmlns="http://www.w3.org/2000/svg" viewBox="0 0 336.12 67.05">
  <defs>
    <style>
      .cls-1 {
        fill: none;
      }

      .cls-2 {
        fill: #1e1f1d;
      }

      .cls-3 {
        fill: #1f1f1d;
      }

      .cls-4 {
        fill: #fdfdfd;
      }
    </style>
  </defs>
  <g id="Layer_1-2" data-name="Layer 1">
    <g>
      <g>
        <path class="cls-3" d="M183.5,19.69c1-3.56,10.96-3.11,13.72-1.24l14.22,27.67c1.65,1.23,15.05-26.32,17.38-28,2.17-1.57,12.54-2.23,12.54,1.57v44.89c0,2.2-10.97,2.2-10.97,0v-30.42l-16.46,29.92-2.96,1.05-17.49-30.97v30.42c0,2.17-9.98,2.17-9.98,0V19.69Z"/>
        <path class="cls-3" d="M326.14,49.11v-30.42c0-2.17,9.98-2.17,9.98,0v47.38c-2.68-.28-5.9.46-8.46-.02-5.01-.95-24.17-25.61-30.44-30.41-1.01-.77-1.26-1.92-3-1.49v31.92h-9.98V18.69c0-2.16,10-2.2,11.93.04l29.97,30.38Z"/>
        <path class="cls-3" d="M54.82,61.58c-1.43,4.66-25.58,5.86-30.3,5.36C-11.6,63.14-7.11,13.82,33.36,16.22c3.35.2,20.72,3.35,20.34,7.28-.04.47-3.11,6.69-3.49,6.75-1.67.27-10.61-3.76-14.81-4.1-11.14-.91-22.53,1.19-23.5,14.52-1.17,15.96,14.34,19.84,27.19,17.16,8.59-1.79,6.87-1.74,6.76-10.7h-14.46c-1.92,0-1.58-6.37-1.5-7.98h23.44c.11,0,1.5,1.39,1.5,1.5,0,4.34.88,18.07,0,20.95Z"/>
        <path class="cls-3" d="M92.48,18.44l23.19,47.62c-3.27-.53-8.39.74-11.29.04-1.38-.33-2.01-5.35-2.83-5.86-1.24-.77-27.09-.41-28.29.81s-1.07,4.17-3.13,4.85c-2.5.82-6.55-.22-9.31.15l22.47-46.85c2.03-3.12,6.38-2.41,9.2-.77Z"/>
        <rect class="cls-2" x="257.32" y="17.19" width="9.98" height="48.88"/>
        <path class="cls-3" d="M171.97,31.65c-.18-10.56-8.7-13.82-17.85-14.5-4.14-.31-28.29-.45-30.06.94-1.22.96-1.26,2.15-1.45,3.54-1.69,12.84,1.23,29.52.19,42.8.97,2.97,8.24,1.19,10.83,1.64v-18.95c3.71.52,9.66-.99,12.96.51,3.62,1.65,9.74,15.3,13.41,17.52,3.19,1.93,7.89.55,11.54.92,1.6-1.55-11.05-16.42-11.94-19.45,7.73-3.87,12.55-5.02,12.39-14.96ZM133.76,38c-.41-.66-.36-9.01.03-10.17,1.78-5.3,33.6-3.94,25.84,7.89-3.1,4.73-24.62,4.27-25.86,2.28Z"/>
        <polygon class="cls-4" points="96.72 52.11 77.76 52.11 87.24 32.17 96.72 52.11"/>
      </g>
      <rect class="cls-1" width="336.12" height="67.05"/>
    </g>
  </g>
</svg>