<?xml version="1.0" encoding="UTF-8"?>
<svg id="Layer_2" data-name="Layer 2" xmlns="http://www.w3.org/2000/svg" viewBox="0 0 422.01 118.01">
  <defs>
    <style>
      .cls-1 {
        fill: #030303;
      }

      .cls-2 {
        fill: #020302;
      }

      .cls-3 {
        fill: #020202;
      }

      .cls-4 {
        fill: #030404;
      }
    </style>
  </defs>
  <g id="Layer_1-2" data-name="Layer 1">
    <g>
      <path class="cls-1" d="M203.52,19.83h-34.92v6.94h15.96v60.99c0,1.48-2.7,9.55-3.59,11.3-7.79,15.3-40.9,15-50.29,1.59-2.41-3.45-4.98-12.86-4.98-16.87V26.77h16.96v-6.94h-34.92v6.95s10.97,0,10.97,0v62.97c0,1.37,2.7,9.65,3.5,11.4,4.49,9.83,13.77,13.64,23.44,16.86h17.96l12.35-4.08c6.49-3.16,11.34-9.47,13.62-16.21,1.26-3.71,2.95-12.26,2.95-15.91V26.77h10.98s0-6.94,0-6.94Z"/>
      <rect class="cls-3" x="31.92" width="36.91" height="6.94"/>
      <path class="cls-4" d="M46.41,17.87C22.83,19.56,6.36,36.88,0,58.51v18.84c1.42,20.58,20.33,38.98,40.9,40.66h16.96l15.34-5.08c49.03-25.17,28.86-99.07-26.8-95.06ZM16.98,94.68C-16.55,52.32,43.33,1.17,80.46,37.04c44.11,42.62-27.04,103.67-63.47,57.64Z"/>
      <path class="cls-2" d="M288.82,109.08c-2.19,0-20.02-32.59-23.44-36.68,32.21.71,36.12-48.34,4.49-52.57h-55.37v6.94h13.97v82.31h-13.97v6.94h36.91v-6.94h-15.96v-35.7h21.95l21.94,35.21-12.97.48v6.95h37.92v-6.94h-15.46ZM236.94,66.44c-.11,0-1.5-1.38-1.5-1.49V26.77h31.43c.85,0,6.78,2.28,8.01,2.94,14.73,7.85,11.05,31.98-7.25,35.5-1.61.31-8.59,1.23-9.74,1.23h-20.95Z"/>
      <path class="cls-1" d="M410.11,107.51l-34-80.25,10.97-.48v-6.95h-36.92v6.95c.33.34,7.73-.24,9.5,0,1.38.18,1.73-.54,1.46,1.47l-34.39,79.86c-6.59,3.09-13.59-3.27-12.48,7.93h37.91v-6.94h-16.96c1.13-3.51,8.86-24.07,10.61-24.66,15.4.06,31.22-.81,46.37.45l9.86,24.21h-16.96v6.94h36.91v-6.95c-.86-.87-10.49,1.65-11.89-1.57ZM348.18,77.35l20.45-49.59,20.45,49.59h-40.9Z"/>
    </g>
  </g>
</svg>