<svg xmlns="http://www.w3.org/2000/svg" viewBox="0 0 422.32 68.84" xmlns:xlink="http://www.w3.org/1999/xlink">
 <g id="Layer_2" data-name="Layer 2">
  <g id="Layer_1_copy_2" data-name="Layer 1 copy 2">
   <rect x="107.68" y="0.09" width="8.4" height="68.74">
   </rect>
   <rect x="124.47" y="30.27" width="24.11" height="8.4">
   </rect>
   <rect x="156.97" y="0.09" width="8.4" height="68.74">
   </rect>
   <polygon points="351.93 68.84 360.33 68.84 360.33 0.1 360.33 0.09 351.93 0.09 351.93 68.84">
   </polygon>
   <path d="M380,.09H368.73V8.26H380a15.29,15.29,0,0,1,0,30.57H368.73V47H380A23.45,23.45,0,1,0,380,.09">
   </path>
   <path d="M216.37.09a34.37,34.37,0,1,0,34.37,34.37A34.41,34.41,0,0,0,216.37.09m0,60.63a26.26,26.26,0,1,1,26.26-26.26,26.28,26.28,0,0,1-26.26,26.26">
   </path>
   <path d="M299.85.09a34.37,34.37,0,1,0,34.37,34.37A34.4,34.4,0,0,0,299.85.09m0,60.63a26.26,26.26,0,1,1,26.26-26.26,26.28,26.28,0,0,1-26.26,26.26">
   </path>
   <polygon points="66.82 55.45 57.89 26.06 49.74 26.06 62.75 68.84 62.75 68.84 70.9 68.84 91.82 0.09 83.67 0.09 66.82 55.45">
   </polygon>
   <polygon points="8.15 0.09 0 0.09 13.01 42.86 21.16 42.86 8.15 0.09">
   </polygon>
   <polygon points="41.83 0.09 20.92 68.84 29.06 68.84 49.99 0.09 41.83 0.09">
   </polygon>
   <path d="M417.25,10.14a5.07,5.07,0,1,1,5.07-5.07A5.07,5.07,0,0,1,417.25,10.14Zm0-9.2a4.06,4.06,0,0,0-4.06,4.13,4.06,4.06,0,1,0,8.11,0A4.05,4.05,0,0,0,417.25.94Zm1.06,6.86-1.12-2.17h-.7V7.8h-1V2.33h2.06A1.7,1.7,0,0,1,419.31,4a1.52,1.52,0,0,1-1.08,1.48l1.22,2.31Zm-.89-4.62h-.93V4.83h.93a.83.83,0,1,0,0-1.65Z">
   </path>
  </g>
 </g>
</svg>